<svg width="97" height="97" viewBox="0 0 97 97" fill="none" xmlns="http://www.w3.org/2000/svg">
<path d="M55.01 44.226C54.5174 45.1202 54.0248 46.022 53.555 46.9162L53.1609 47.6588L53.123 47.7195C54.5098 49.561 55.6996 51.5388 56.6393 53.547C56.7757 53.8274 56.9045 54.1154 57.0334 54.4034C58.3747 54.0093 59.7236 53.7895 61.0422 53.7365C60.0495 51.1069 58.5187 48.3788 56.268 45.6203C55.8739 45.1429 55.442 44.6882 55.01 44.226Z" fill="#B4EBE7"/>
<path d="M59.0568 64.5353C58.7764 64.5353 58.4884 64.5505 58.2004 64.5808C56.6318 69.5369 51.5393 71.7042 46.1588 71.0373C37.7092 69.9991 29.9568 63.5729 27.3575 55.5022C26.827 53.888 26.6451 52.2815 26.5845 50.5688C26.4329 46.1584 27.2817 41.4372 31.6997 39.6109L31.7528 39.5881C31.8968 39.5275 32.0407 39.4896 32.1847 39.4441C31.8664 38.9667 31.5406 38.4666 31.2299 37.9134C30.7903 37.1328 30.5251 36.3068 30.366 35.5035C25.6296 37.1555 22.7424 41.3387 20.719 45.9462C18.7866 50.3566 6.22965 84.2687 6.22965 84.2687L4.5473 88.8156C3.97137 90.3919 3.07715 91.9757 3.07715 93.6959C3.07715 95.7041 4.86559 97.0758 6.88137 96.515C8.23027 96.1361 9.71559 95.4389 11.0872 94.8933C13.9896 93.7111 19.3701 91.3846 19.3701 91.3846L41.862 82.1241C41.862 82.1241 52.7063 78.1987 57.2683 73.9019C59.4811 71.8179 61.2544 68.8169 62.035 65.2325C61.8758 65.1491 61.7091 65.0582 61.5424 64.99C60.7846 64.6793 59.9737 64.5353 59.0568 64.5353Z" fill="#B4EBE7"/>
<path d="M42.1955 36.0264C42.779 37.1404 43.4231 38.4059 43.6656 39.9746C44.7417 40.4293 45.7723 40.9749 46.7499 41.619C47.0909 40.5278 47.4471 39.4517 47.8184 38.3529C47.6593 38.2544 47.5002 38.1407 47.341 38.0498C45.742 37.1404 43.946 36.3674 42.0742 35.7915C42.1197 35.8748 42.1576 35.943 42.1955 36.0264Z" fill="#B4EBE7"/>
<path d="M84.8223 24.2349C84.7011 24.9927 84.7314 26.0688 84.8526 26.8114C84.9814 27.645 85.1709 28.5317 85.474 29.3198C85.906 30.4262 86.4364 30.0397 87.5201 29.8881C88.2704 29.7896 88.9675 29.8427 89.7102 29.6911C90.4907 29.532 91.2637 29.3274 92.0443 29.1758C93.8782 28.8272 94.7951 28.418 94.4086 26.4856C94.1282 25.0912 93.666 23.7044 93.3022 22.3252C92.9688 22.0296 92.3246 22.1963 91.9306 22.2873C91.2334 22.4464 90.5438 22.4843 89.8466 22.6056C88.5886 22.8102 87.27 22.9617 86.0348 23.2573C85.4058 23.3937 84.9208 23.5831 84.8223 24.2349Z" fill="#FFC646"/>
<path d="M74.9249 46.9844C75.2128 47.6437 75.9176 47.4769 76.6072 47.6285C78.138 47.9771 79.6915 47.9392 81.2602 47.9392C81.8437 47.9392 83.3214 48.159 83.7382 47.6361C84.0717 47.2117 83.7837 46.3705 83.7382 45.878L83.5563 43.9531C83.526 43.65 83.5791 41.6645 83.3214 41.4978C82.8819 41.2023 82.0483 41.3462 81.5481 41.3538C80.6312 41.3841 79.7294 41.4978 78.7973 41.4978C77.5924 41.4978 76.2889 41.513 75.1219 41.8009C74.7127 42.8846 74.8263 44.0137 74.8263 45.2035C74.8263 45.7567 74.7051 46.469 74.9249 46.9844Z" fill="#2CA59B"/>
<path d="M69.6585 79.7143C69.0295 78.7822 68.7188 77.5318 67.3169 77.6682C65.9983 77.7971 64.8312 78.8428 63.6718 79.4112C62.9216 79.775 62.3759 80.4267 62.2244 81.2451C62.0501 82.1772 62.4366 82.9199 62.8837 83.7156C63.2171 84.3143 63.4369 85.0039 63.7021 85.6328C63.9749 86.2846 64.3917 86.8681 64.6721 87.5122C64.8616 87.9669 64.8009 87.929 65.2177 88.0882C65.4299 88.1639 65.7785 88.2246 66.0059 88.2321C67.332 88.27 68.7719 86.9287 69.7343 86.1406C70.5073 85.5192 72.0532 85.1251 71.8941 83.9505C71.7804 83.079 71.1741 82.2378 70.7573 81.4876C70.4088 80.8738 70.0374 80.2827 69.6585 79.7143Z" fill="#FFC646"/>
<path d="M84.4662 86.0799C84.2919 85.9663 84.1252 85.8981 83.9736 85.8753C83.1703 85.7314 82.6399 86.7014 82.0033 87.3303C81.2379 88.0654 80.3285 88.6489 79.6313 89.4522C78.8811 90.3313 79.4646 91.1194 80.2376 91.5892C81.0788 92.097 81.829 92.7335 82.6626 93.264C83.4053 93.7414 84.0039 94.1658 84.8299 93.6505C85.5802 93.1807 85.997 92.3546 86.5123 91.665C87.4671 90.3767 89.0964 89.3385 87.4974 87.9214C86.6032 87.1257 85.4513 86.7317 84.4662 86.0799Z" fill="#2CA59B"/>
<path d="M6.82076 41.7251C6.85865 41.3765 7.8438 38.5878 7.54826 38.5044C6.8738 38.3377 6.23724 38.0194 5.55521 37.8376C4.76709 37.633 3.95623 37.4738 3.22115 37.1101C2.33451 36.6705 1.78888 36.8903 1.41755 37.3829C0.894663 38.0801 0.727945 39.3305 0.477867 40.0958C0.280835 40.6945 0.159585 41.3765 0.58396 41.8009C1.06896 42.2783 1.87224 42.5512 2.50123 42.7558C3.28935 43.0134 4.16841 43.4681 4.97927 43.5439C6.08568 43.6651 6.70709 42.6648 6.82076 41.7251Z" fill="#2CA59B"/>
<path d="M52.0091 14.8077C52.9943 15.2472 53.9491 15.4973 54.957 15.7852C55.3132 15.8913 55.5405 16.0656 55.9119 15.8686C56.3893 15.6261 56.9197 14.7849 57.185 14.3227C57.814 13.1784 58.2762 12.0492 58.7082 10.8443C58.9431 10.2002 59.6403 9.15439 59.466 8.47235C59.3144 7.89642 58.4808 7.54024 58.011 7.29017C57.382 6.96431 56.7833 6.52478 56.1468 6.24439C55.3283 5.88821 54.2068 5.50173 53.3277 5.3729C52.8427 5.29712 52.5017 5.49415 52.2365 5.80485C51.994 6.08524 51.8121 6.45657 51.6302 6.79759C50.7133 8.55571 49.5841 11.2005 49.622 13.2314C49.6372 14.1938 51.2816 14.4818 52.0091 14.8077Z" fill="#2CA59B"/>
<path d="M12.6178 25.2352C13.171 26.0839 13.6636 26.8569 14.3153 27.6602C14.9519 28.4331 15.4066 28.5847 16.1871 27.9406C16.6797 27.5465 17.2405 27.2358 17.7103 26.8114C18.1574 26.4174 18.5288 25.9172 18.9759 25.508C19.2942 25.2124 19.9231 24.9169 20.105 24.5077C20.3551 23.9317 19.8322 23.4316 19.5139 23.0072C19.1199 22.4767 18.8167 21.9008 18.3848 21.3703C17.8316 20.7034 17.2329 20.0745 16.6115 19.4531C16.1038 18.9453 15.4899 18.1648 14.914 17.7707C14.7624 17.6722 14.5881 17.604 14.4063 17.5813C13.7167 17.4827 12.8982 17.8768 12.3602 18.1951C11.6251 18.627 10.9128 19.2712 10.2686 19.8395C9.26072 20.7338 10.2383 21.9084 10.8294 22.7571C11.4205 23.5756 12.057 24.3713 12.6178 25.2352Z" fill="#FFC646"/>
<path d="M12.6784 7.55538C13.1861 8.101 13.8151 8.7603 14.5274 9.071C15.1564 9.35139 15.8006 8.79061 16.3083 8.47991C16.8767 8.13132 17.3389 7.62358 17.7633 7.11585C18.1498 6.646 18.6727 6.13827 18.9606 5.59264C19.2941 4.97124 18.8394 4.73632 18.3771 4.36499C17.8239 3.9103 17.2631 3.44046 16.7933 2.89483C16.1567 2.15218 15.5202 1.31858 14.8457 0.63655C14.6184 0.401629 14.3456 0.341004 14.0576 0.39405C13.1558 0.545613 12.0873 1.81116 11.5568 2.22796C11.1324 2.55382 10.3898 3.12975 10.261 3.6678C10.1018 4.27405 10.458 4.85757 10.7611 5.3653C11.2537 6.18374 12.0115 6.84303 12.6784 7.55538Z" fill="#2CA59B"/>
<path d="M34.7533 22.1205C35.7991 25.7429 33.0103 28.5392 32.7072 31.9721C32.6162 32.9648 32.6162 33.9576 32.783 34.9124C32.8891 35.5338 33.0634 36.1401 33.3741 36.6933C33.7833 37.4208 34.2531 38.0801 34.6851 38.7621C35.1094 39.4214 35.4884 40.0883 35.746 40.8537C36.3144 42.5512 35.9203 44.0819 35.6778 45.7643C35.4808 47.1056 34.7987 48.3712 33.9803 49.4321C33.7302 49.758 33.0406 50.1747 33.2073 50.6522C33.2301 50.7355 33.3816 50.7658 33.6014 50.7658C34.5108 50.7658 36.6554 50.2126 36.9661 50.0687C38.3301 49.4094 39.1259 48.0756 39.8306 46.7873C40.8764 44.8776 41.5509 42.6497 41.2553 40.4596C41.1947 39.9594 41.0583 39.4896 40.8916 39.0349C40.3838 37.6784 39.5427 36.4659 39.0652 35.0791C39.0046 34.9124 38.944 34.7457 38.8985 34.5714C38.2013 31.8584 39.8761 29.1985 41.2856 27.0387C42.6724 24.9244 43.1953 21.8174 42.2102 19.3924C41.71 18.1648 40.9067 16.9371 39.9291 16.0353C38.7697 14.9592 37.004 13.9816 37.201 12.125C37.3677 10.5108 38.459 8.81335 39.285 7.4796C39.6942 6.80514 40.9825 5.42593 40.937 4.65296C40.8991 3.86483 39.8003 3.47077 39.2774 3.0085C38.0952 1.96272 37.1555 1.15944 35.6399 0.68202C35.4111 0.600399 35.1705 0.556878 34.9276 0.553192C33.95 0.553192 33.609 1.43983 33.0634 2.39468C32.063 4.16038 31.0779 6.0246 30.411 7.93429C29.153 11.4808 28.9636 15.1411 31.6841 18.4603C32.6238 19.6198 34.3592 20.7565 34.7533 22.1205Z" fill="#2CA59B"/>
<path d="M47.0446 52.6983C47.2341 52.8953 47.4084 52.9787 47.5675 52.9787C47.863 52.9787 48.098 52.6756 48.2874 52.3194C48.4314 52.0466 48.5451 51.7662 48.636 51.4706C49.1437 49.7656 50.1516 48.0756 50.9852 46.4994C51.1368 46.219 51.2884 45.9462 51.4323 45.6734C52.0083 44.5897 52.5994 43.506 53.2132 42.4299C53.6906 41.5812 54.168 40.7248 54.6834 39.9064C56.0323 37.7466 57.851 35.4429 60.1396 34.238C61.5795 33.465 63.2012 33.1088 64.6486 32.3434C66.293 31.4871 67.2555 30.1913 68.324 28.7135C69.3849 27.2509 69.9381 25.4474 70.9081 23.909C71.3173 23.2573 71.2567 22.6813 71.9766 22.2266C73.5756 21.2263 75.4929 21.5674 77.2662 21.2263C81.4569 20.4231 81.8282 14.8986 85.2535 12.9056C85.9734 12.4888 86.7085 12.1023 87.436 11.7158C87.8604 11.4884 88.6788 11.2081 88.9744 10.7913C89.4821 10.0789 88.5197 9.1468 88.2317 8.49508C87.7316 7.37352 86.9813 6.24438 86.3372 5.1986C85.7916 4.31954 85.3066 3.52383 84.3366 3.52383L84.1471 3.53899C81.957 3.75118 80.0019 4.7136 78.5999 6.38837C76.8948 8.43446 76.6675 11.5945 73.9848 12.7161C72.2419 13.4436 70.1882 13.1556 68.5362 14.1635C66.581 15.3609 65.952 17.7252 65.4064 19.8016C64.9972 21.3173 64.9745 23.1436 63.8226 24.3334C62.2615 25.9324 59.8895 26.1294 57.8889 26.9857C57.3509 27.2206 56.8355 27.501 56.3733 27.8648C53.8346 29.8654 52.3948 33.1467 51.258 36.087C50.7958 37.292 50.379 38.5196 49.9698 39.7473C49.5909 40.8916 49.2195 42.0359 48.8634 43.1877C48.6815 43.7788 48.4845 44.3699 48.3026 44.9686C47.8403 46.4691 47.4159 48.0074 46.8703 49.4852C46.4914 50.4324 46.2565 51.8799 47.0446 52.6983Z" fill="#2CA59B"/>
<path d="M96.5757 65.7782C96.4317 65.6266 96.2271 65.6114 96.0225 65.6114L95.7875 65.619L95.6587 65.6114C95.204 65.5811 94.8251 65.3841 94.3856 65.2325C92.3622 64.5278 91.0512 63.9442 89.2628 62.7393C87.247 61.3828 84.9357 60.1173 82.45 60.0036L82.1621 59.996C79.7068 59.996 77.4409 61.2919 74.978 61.2919H74.9629C72.2347 61.2767 69.8779 59.3367 67.7257 57.9045C67.5439 57.7832 67.362 57.6696 67.165 57.5635C65.475 56.6086 63.6563 56.1918 61.8224 56.1691C61.7769 56.1691 61.7239 56.1539 61.6784 56.1539C60.4129 56.1539 59.1397 56.351 57.8969 56.6996C56.6844 57.033 55.5098 57.518 54.3882 58.1167C52.7823 58.9718 51.2622 59.9793 49.8489 61.1252C49.0684 61.7542 48.2121 62.4741 47.6816 63.3456C47.3936 63.8078 46.9996 65.566 47.7347 65.8539L47.8332 65.8767C48.1211 65.8767 48.591 65.5735 48.7956 65.4447C50.4325 64.4368 52.1603 63.5578 54.0018 62.9818C55.5098 62.5044 57.0936 62.1558 58.6623 62.0952C58.7911 62.0876 58.9275 62.08 59.0564 62.08C60.1855 62.08 61.3071 62.2543 62.3983 62.6787L62.4438 62.7014C63.967 63.3077 65.2401 64.3535 66.4981 65.3765C68.3472 66.877 70.4008 67.2104 72.4924 67.2104C74.1217 67.2104 75.7737 67.0134 77.3879 67.0134C79.0778 67.0134 80.7146 67.2331 82.2227 68.1198C83.4504 68.8549 84.5568 69.8173 85.504 70.8403C86.5498 71.9543 87.8836 72.8864 89.4522 73.1289C90.1191 73.235 90.7254 73.2881 91.3998 73.2957H91.415C92.5517 73.2957 92.9836 71.9846 93.5596 71.2344C94.3477 70.2189 94.8933 69.0519 95.6132 67.9834C95.9164 67.5135 97.091 66.2935 96.5757 65.7782Z" fill="#2CA59B"/>
</svg>
