<svg xmlns="http://www.w3.org/2000/svg" width="244.278" height="37" viewBox="0 0 244.278 37"><g transform="translate(-167.5 -403.499)"><path d="M192.134,414a10.5,10.5,0,0,1,10.5-10.5V430a10.5,10.5,0,0,1-10.5,10.5h0Zm-12.3,16V403.5a10.5,10.5,0,0,1,10.5,10.5v26.5a10.5,10.5,0,0,1-10.5-10.5ZM202.5,435.89s2-2.451,2-4.576V421.065a10.527,10.527,0,0,1,10.527-10.527h0v14.821A10.53,10.53,0,0,1,204.5,435.89Zm-24.473,0A10.531,10.531,0,0,1,167.5,425.359V410.538a10.527,10.527,0,0,1,10.527,10.527h0v10.249c0,2.125,2,4.576,2,4.576Z" fill="#33c0b4"/><path d="M238.73,413.137h-9.85v-2.7h13.95v2.3l-10.15,12.375v.075h10.3v2.725H228.555v-2.276l10.175-12.424Z" fill="#2e3841"/><path d="M259.43,410.438v2.775H250.1v4.625h8.375v2.625H250.1v4.674h9.625v2.776H247.154V410.438Z" fill="#2e3841"/><path d="M277.079,410.438h2.95v17.475h-3.2l-9.9-12.75v12.75h-2.951V410.438h2.951l10.149,13.05Z" fill="#2e3841"/><path d="M290.642,412.738a3.881,3.881,0,0,0-2.113.524,1.757,1.757,0,0,0-.825,1.588,1.845,1.845,0,0,0,.825,1.625,12.447,12.447,0,0,0,3.513,1.213,9.67,9.67,0,0,1,4.05,1.824,4.327,4.327,0,0,1,1.362,3.463,4.584,4.584,0,0,1-1.725,3.713,6.88,6.88,0,0,1-4.525,1.425,10.624,10.624,0,0,1-7.274-2.825l1.849-2.225a8.333,8.333,0,0,0,5.5,2.3,3.761,3.761,0,0,0,2.263-.612,1.918,1.918,0,0,0,.838-1.625,1.826,1.826,0,0,0-.788-1.576,8.3,8.3,0,0,0-2.712-1.025,24.213,24.213,0,0,1-2.926-.85,6.583,6.583,0,0,1-1.774-1.012,4.227,4.227,0,0,1-1.55-3.6,4.382,4.382,0,0,1,1.762-3.738,7.1,7.1,0,0,1,4.363-1.313,10.445,10.445,0,0,1,3.324.551,8.669,8.669,0,0,1,2.851,1.55l-1.576,2.225a5.958,5.958,0,0,0-2.1-1.15A8.071,8.071,0,0,0,290.642,412.738Z" fill="#2e3841"/><path d="M305.505,423.913a4.472,4.472,0,0,0,6.5,0,5.646,5.646,0,0,0,1.2-3.8v-9.675h2.95v9.8a7.776,7.776,0,0,1-2.075,5.812,7.974,7.974,0,0,1-10.649,0,7.776,7.776,0,0,1-2.076-5.812v-9.8H304.3v9.675A5.641,5.641,0,0,0,305.505,423.913Z" fill="#2e3841"/><path d="M335.2,416.113q0,4.326-3.775,5.45l4.575,6.35h-3.75l-4.175-5.875H324.2v5.875h-2.95V410.438h6.5q4,0,5.725,1.35A5.156,5.156,0,0,1,335.2,416.113Zm-3.925,2.475a3.117,3.117,0,0,0,.9-2.488,2.66,2.66,0,0,0-.925-2.349,6.146,6.146,0,0,0-3.3-.638H324.2v6.25h3.675A5.411,5.411,0,0,0,331.279,418.588Z" fill="#2e3841"/><path d="M342.4,423.938l-1.75,3.975H337.5l7.7-17.475h3.15l7.7,17.475H352.9l-1.75-3.975Zm7.55-2.725-3.175-7.2-3.175,7.2Z" fill="#2e3841"/><path d="M372.054,410.438H375v17.475h-3.2l-9.9-12.75v12.75h-2.95V410.438h2.95l10.151,13.05Z" fill="#2e3841"/><path d="M388.3,425.238a6.171,6.171,0,0,0,2.625-.513,9.052,9.052,0,0,0,2.3-1.637l1.9,1.95a8.748,8.748,0,0,1-6.738,3.075,9.035,9.035,0,0,1-6.575-2.55,9.266,9.266,0,0,1,.05-12.95,9.235,9.235,0,0,1,6.725-2.6,8.8,8.8,0,0,1,6.788,3l-1.875,2.051a8.206,8.206,0,0,0-2.363-1.676,6.633,6.633,0,0,0-2.613-.474,6.208,6.208,0,0,0-4.45,1.713,5.775,5.775,0,0,0-1.8,4.375,6.039,6.039,0,0,0,1.788,4.449A5.791,5.791,0,0,0,388.3,425.238Z" fill="#2e3841"/><path d="M411.479,410.438v2.775h-9.326v4.625h8.375v2.625h-8.375v4.674h9.625v2.776H399.2V410.438Z" fill="#2e3841"/></g></svg>