<svg width="40" height="32" viewBox="0 0 40 32" fill="none" xmlns="http://www.w3.org/2000/svg">
<path d="M20.726 8.834C20.726 7.67382 20.9545 6.525 21.3985 5.45314C21.8426 4.38129 22.4934 3.40739 23.3138 2.58706C24.1342 1.76674 25.1082 1.11605 26.1801 0.672161C27.252 0.22827 28.4008 -0.000131275 29.561 5.66047e-08V22.3C29.561 24.6429 28.6303 26.8899 26.9736 28.5466C25.3169 30.2033 23.0699 31.134 20.727 31.134V31.134L20.726 8.834ZM10.377 22.3V5.66047e-08C12.7199 5.66047e-08 14.9669 0.930722 16.6236 2.58742C18.2803 4.24411 19.211 6.49108 19.211 8.834V31.134C16.8681 31.134 14.6211 30.2033 12.9644 28.5466C11.3077 26.8899 10.377 24.6429 10.377 22.3V22.3ZM29.448 27.257C29.448 27.257 31.131 25.195 31.131 23.407V14.779C31.131 13.6158 31.3601 12.464 31.8053 11.3893C32.2505 10.3147 32.903 9.33826 33.7255 8.5158C34.5481 7.69334 35.5246 7.04096 36.5993 6.59591C37.674 6.15086 38.8258 5.92187 39.989 5.922V5.922V18.392C39.989 20.7415 39.0558 22.9947 37.3947 24.6563C35.7335 26.3178 33.4805 27.2515 31.131 27.252L29.448 27.257ZM8.857 27.257C6.50778 27.2559 4.25513 26.322 2.59427 24.6606C0.9334 22.9992 0.000264879 20.7462 0 18.397V5.923C2.34902 5.923 4.60183 6.85615 6.26284 8.51715C7.92385 10.1782 8.857 12.431 8.857 14.78V14.78V23.4C8.857 25.188 10.54 27.25 10.54 27.25L8.857 27.257Z" fill="#33C0B4"/>
</svg>
