<svg width="24" height="25" viewBox="0 0 24 25" fill="none" xmlns="http://www.w3.org/2000/svg">
<path d="M20.7666 5.09624L12.7669 1.65794C12.5232 1.55367 12.262 1.5 11.9981 1.5C11.7343 1.5 11.473 1.55367 11.2293 1.65794L3.23343 5.09624C2.86841 5.25217 2.5564 5.51622 2.33686 5.85501C2.11732 6.19379 2.00009 6.5921 2 6.99958C2 15.5301 6.77094 21.4262 11.2293 23.3421C11.473 23.4463 11.7343 23.5 11.9981 23.5C12.262 23.5 12.5232 23.4463 12.7669 23.3421C16.3379 21.8071 22 16.5096 22 6.99958C21.9995 6.59218 21.8822 6.19404 21.6627 5.85533C21.4432 5.51662 21.1314 5.25249 20.7666 5.09624ZM12.0042 20.678V4.30477L19.3331 7.45431C19.1955 13.9606 15.9119 18.6787 12.0079 20.677L12.0042 20.678Z" fill="#2CA59B"/>
</svg>
